<mxfile host="app.diagrams.net" modified="2023-05-28T17:41:01.804Z" agent="Mozilla/5.0 (Windows NT 10.0; Win64; x64) AppleWebKit/537.36 (KHTML, like Gecko) Chrome/113.0.0.0 Safari/537.36" etag="jaLXurrLsxw8s3xDNJvd" version="21.3.2" type="device">
  <diagram name="Page-1" id="_YOqrEhvVYRJiGp-97S-">
    <mxGraphModel dx="989" dy="521" grid="1" gridSize="10" guides="1" tooltips="1" connect="1" arrows="1" fold="1" page="1" pageScale="1" pageWidth="827" pageHeight="1169" math="0" shadow="0">
      <root>
        <mxCell id="0" />
        <mxCell id="1" parent="0" />
        <mxCell id="PITD9-UTJYJh-x9IKWP--2" style="edgeStyle=orthogonalEdgeStyle;rounded=0;orthogonalLoop=1;jettySize=auto;html=1;entryX=0;entryY=0.5;entryDx=0;entryDy=0;" parent="1" source="PITD9-UTJYJh-x9IKWP--5" target="PITD9-UTJYJh-x9IKWP--9" edge="1">
          <mxGeometry relative="1" as="geometry">
            <Array as="points">
              <mxPoint x="240" y="430" />
              <mxPoint x="240" y="500" />
            </Array>
          </mxGeometry>
        </mxCell>
        <mxCell id="PITD9-UTJYJh-x9IKWP--3" style="edgeStyle=orthogonalEdgeStyle;rounded=0;orthogonalLoop=1;jettySize=auto;html=1;" parent="1" source="PITD9-UTJYJh-x9IKWP--5" target="PITD9-UTJYJh-x9IKWP--7" edge="1">
          <mxGeometry relative="1" as="geometry" />
        </mxCell>
        <mxCell id="PITD9-UTJYJh-x9IKWP--4" style="edgeStyle=orthogonalEdgeStyle;rounded=0;orthogonalLoop=1;jettySize=auto;html=1;" parent="1" source="PITD9-UTJYJh-x9IKWP--5" target="PITD9-UTJYJh-x9IKWP--11" edge="1">
          <mxGeometry relative="1" as="geometry">
            <Array as="points">
              <mxPoint x="240" y="430" />
              <mxPoint x="240" y="400" />
            </Array>
          </mxGeometry>
        </mxCell>
        <mxCell id="PITD9-UTJYJh-x9IKWP--5" value="Administrateur" style="shape=umlActor;verticalLabelPosition=bottom;verticalAlign=top;html=1;outlineConnect=0;" parent="1" vertex="1">
          <mxGeometry x="140" y="400" width="30" height="60" as="geometry" />
        </mxCell>
        <mxCell id="PITD9-UTJYJh-x9IKWP--6" style="edgeStyle=orthogonalEdgeStyle;rounded=0;orthogonalLoop=1;jettySize=auto;html=1;" parent="1" source="PITD9-UTJYJh-x9IKWP--7" target="PITD9-UTJYJh-x9IKWP--10" edge="1">
          <mxGeometry relative="1" as="geometry" />
        </mxCell>
        <mxCell id="PITD9-UTJYJh-x9IKWP--7" value="Utilisateur" style="shape=umlActor;verticalLabelPosition=bottom;verticalAlign=top;html=1;outlineConnect=0;" parent="1" vertex="1">
          <mxGeometry x="140" y="240" width="30" height="60" as="geometry" />
        </mxCell>
        <mxCell id="PITD9-UTJYJh-x9IKWP--8" value="Application Tricount" style="text;html=1;align=center;verticalAlign=middle;resizable=0;points=[];autosize=1;strokeColor=none;fillColor=none;" parent="1" vertex="1">
          <mxGeometry x="160" y="160" width="130" height="30" as="geometry" />
        </mxCell>
        <mxCell id="PITD9-UTJYJh-x9IKWP--9" value="Lire la documentation API&lt;span style=&quot;color: rgba(0, 0, 0, 0); font-family: monospace; font-size: 0px; text-align: start;&quot;&gt;%3CmxGraphModel%3E%3Croot%3E%3CmxCell%20id%3D%220%22%2F%3E%3CmxCell%20id%3D%221%22%20parent%3D%220%22%2F%3E%3CmxCell%20id%3D%222%22%20value%3D%22Administrateur%22%20style%3D%22shape%3DumlActor%3BverticalLabelPosition%3Dbottom%3BverticalAlign%3Dtop%3Bhtml%3D1%3BoutlineConnect%3D0%3B%22%20vertex%3D%221%22%20parent%3D%221%22%3E%3CmxGeometry%20x%3D%22120%22%20y%3D%22400%22%20width%3D%2230%22%20height%3D%2260%22%20as%3D%22geometry%22%2F%3E%3C%2FmxCell%3E%3C%2Froot%3E%3C%2FmxGraphModel%3E&lt;/span&gt;" style="ellipse;whiteSpace=wrap;html=1;" parent="1" vertex="1">
          <mxGeometry x="284" y="480" width="130" height="40" as="geometry" />
        </mxCell>
        <mxCell id="PITD9-UTJYJh-x9IKWP--10" value="Ajouter une dépense" style="ellipse;whiteSpace=wrap;html=1;" parent="1" vertex="1">
          <mxGeometry x="284" y="250" width="130" height="40" as="geometry" />
        </mxCell>
        <mxCell id="PITD9-UTJYJh-x9IKWP--11" value="Ajouter des aliments / plats" style="ellipse;whiteSpace=wrap;html=1;" parent="1" vertex="1">
          <mxGeometry x="284" y="380" width="130" height="40" as="geometry" />
        </mxCell>
        <mxCell id="PITD9-UTJYJh-x9IKWP--12" value="Modifier des aliments / plats" style="ellipse;whiteSpace=wrap;html=1;" parent="1" vertex="1">
          <mxGeometry x="560" y="480" width="130" height="40" as="geometry" />
        </mxCell>
        <mxCell id="PITD9-UTJYJh-x9IKWP--13" value="Supprimer des aliments / plats" style="ellipse;whiteSpace=wrap;html=1;" parent="1" vertex="1">
          <mxGeometry x="430" y="530" width="130" height="40" as="geometry" />
        </mxCell>
        <mxCell id="PITD9-UTJYJh-x9IKWP--15" value="extend" style="endArrow=open;endSize=12;dashed=1;html=1;rounded=0;entryX=0.736;entryY=0.966;entryDx=0;entryDy=0;exitX=0;exitY=0.5;exitDx=0;exitDy=0;entryPerimeter=0;" parent="1" source="PITD9-UTJYJh-x9IKWP--12" target="PITD9-UTJYJh-x9IKWP--11" edge="1">
          <mxGeometry x="0.0119" width="160" relative="1" as="geometry">
            <mxPoint x="498.3119875931104" y="376.5096055831003" as="sourcePoint" />
            <mxPoint x="424" y="410" as="targetPoint" />
            <Array as="points" />
            <mxPoint as="offset" />
          </mxGeometry>
        </mxCell>
        <mxCell id="PITD9-UTJYJh-x9IKWP--16" value="extend" style="endArrow=open;endSize=12;dashed=1;html=1;rounded=0;" parent="1" source="PITD9-UTJYJh-x9IKWP--13" target="PITD9-UTJYJh-x9IKWP--11" edge="1">
          <mxGeometry width="160" relative="1" as="geometry">
            <mxPoint x="468.47535451362137" y="359.8747874644879" as="sourcePoint" />
            <mxPoint x="349" y="380" as="targetPoint" />
            <Array as="points" />
          </mxGeometry>
        </mxCell>
        <mxCell id="PITD9-UTJYJh-x9IKWP--17" value="Authentification" style="ellipse;whiteSpace=wrap;html=1;" parent="1" vertex="1">
          <mxGeometry x="610" y="390" width="130" height="40" as="geometry" />
        </mxCell>
        <mxCell id="PITD9-UTJYJh-x9IKWP--18" value="includes" style="endArrow=open;endSize=12;dashed=1;html=1;rounded=0;entryX=0;entryY=1;entryDx=0;entryDy=0;exitX=1;exitY=0.5;exitDx=0;exitDy=0;" parent="1" source="PITD9-UTJYJh-x9IKWP--9" target="PITD9-UTJYJh-x9IKWP--17" edge="1">
          <mxGeometry x="0.0119" width="160" relative="1" as="geometry">
            <mxPoint x="440" y="460" as="sourcePoint" />
            <mxPoint x="390" y="429" as="targetPoint" />
            <Array as="points" />
            <mxPoint as="offset" />
          </mxGeometry>
        </mxCell>
        <mxCell id="PITD9-UTJYJh-x9IKWP--19" value="includes" style="endArrow=open;endSize=12;dashed=1;html=1;rounded=0;entryX=0.231;entryY=0;entryDx=0;entryDy=0;exitX=1;exitY=0.5;exitDx=0;exitDy=0;entryPerimeter=0;" parent="1" source="PITD9-UTJYJh-x9IKWP--10" target="PITD9-UTJYJh-x9IKWP--17" edge="1">
          <mxGeometry x="0.0119" width="160" relative="1" as="geometry">
            <mxPoint x="359" y="530" as="sourcePoint" />
            <mxPoint x="399" y="608" as="targetPoint" />
            <Array as="points" />
            <mxPoint as="offset" />
          </mxGeometry>
        </mxCell>
        <mxCell id="PITD9-UTJYJh-x9IKWP--20" value="includes" style="endArrow=open;endSize=12;dashed=1;html=1;rounded=0;entryX=0;entryY=0.5;entryDx=0;entryDy=0;exitX=1;exitY=0.5;exitDx=0;exitDy=0;" parent="1" source="PITD9-UTJYJh-x9IKWP--11" target="PITD9-UTJYJh-x9IKWP--17" edge="1">
          <mxGeometry x="0.0119" width="160" relative="1" as="geometry">
            <mxPoint x="369" y="540" as="sourcePoint" />
            <mxPoint x="409" y="618" as="targetPoint" />
            <Array as="points" />
            <mxPoint as="offset" />
          </mxGeometry>
        </mxCell>
        <mxCell id="PITD9-UTJYJh-x9IKWP--21" value="Voir les dépenses des autres" style="ellipse;whiteSpace=wrap;html=1;" parent="1" vertex="1">
          <mxGeometry x="284" y="200" width="130" height="40" as="geometry" />
        </mxCell>
        <mxCell id="PITD9-UTJYJh-x9IKWP--22" style="edgeStyle=orthogonalEdgeStyle;rounded=0;orthogonalLoop=1;jettySize=auto;html=1;entryX=0;entryY=0.5;entryDx=0;entryDy=0;exitX=0.5;exitY=0.5;exitDx=0;exitDy=0;exitPerimeter=0;" parent="1" source="PITD9-UTJYJh-x9IKWP--7" target="PITD9-UTJYJh-x9IKWP--21" edge="1">
          <mxGeometry relative="1" as="geometry">
            <mxPoint x="170" y="270" as="sourcePoint" />
            <mxPoint x="294" y="280" as="targetPoint" />
          </mxGeometry>
        </mxCell>
        <mxCell id="PITD9-UTJYJh-x9IKWP--23" value="includes" style="endArrow=open;endSize=12;dashed=1;html=1;rounded=0;entryX=0.5;entryY=0;entryDx=0;entryDy=0;exitX=1.001;exitY=0.708;exitDx=0;exitDy=0;exitPerimeter=0;" parent="1" source="PITD9-UTJYJh-x9IKWP--21" target="PITD9-UTJYJh-x9IKWP--17" edge="1">
          <mxGeometry x="0.0119" width="160" relative="1" as="geometry">
            <mxPoint x="424" y="280" as="sourcePoint" />
            <mxPoint x="759" y="436" as="targetPoint" />
            <Array as="points" />
            <mxPoint as="offset" />
          </mxGeometry>
        </mxCell>
        <mxCell id="PITD9-UTJYJh-x9IKWP--24" value="Ajouter une catégorie de dépense" style="ellipse;whiteSpace=wrap;html=1;" parent="1" vertex="1">
          <mxGeometry x="284" y="300" width="130" height="40" as="geometry" />
        </mxCell>
        <mxCell id="PITD9-UTJYJh-x9IKWP--25" style="edgeStyle=orthogonalEdgeStyle;rounded=0;orthogonalLoop=1;jettySize=auto;html=1;entryX=0;entryY=0.5;entryDx=0;entryDy=0;exitX=0.5;exitY=0.5;exitDx=0;exitDy=0;exitPerimeter=0;" parent="1" source="PITD9-UTJYJh-x9IKWP--7" target="PITD9-UTJYJh-x9IKWP--24" edge="1">
          <mxGeometry relative="1" as="geometry">
            <mxPoint x="180" y="280" as="sourcePoint" />
            <mxPoint x="294" y="230" as="targetPoint" />
          </mxGeometry>
        </mxCell>
        <mxCell id="PITD9-UTJYJh-x9IKWP--26" value="includes" style="endArrow=open;endSize=12;dashed=1;html=1;rounded=0;entryX=0.064;entryY=0.25;entryDx=0;entryDy=0;exitX=1;exitY=0.5;exitDx=0;exitDy=0;entryPerimeter=0;" parent="1" source="PITD9-UTJYJh-x9IKWP--24" target="PITD9-UTJYJh-x9IKWP--17" edge="1">
          <mxGeometry x="0.0119" width="160" relative="1" as="geometry">
            <mxPoint x="424" y="280" as="sourcePoint" />
            <mxPoint x="629" y="416" as="targetPoint" />
            <Array as="points" />
            <mxPoint as="offset" />
          </mxGeometry>
        </mxCell>
      </root>
    </mxGraphModel>
  </diagram>
</mxfile>
